<svg xmlns="http://www.w3.org/2000/svg" xmlns:xlink="http://www.w3.org/1999/xlink" width="270.188" height="321.052" viewBox="0 0 270.188 321.052"><defs><style>.a,.h{fill:none;}.b{fill:#f1f9ff;stroke:#bce0fd;}.c{clip-path:url(#a);}.d{fill:url(#b);}.e{opacity:0.03;}.f{fill:#c9dade;}.g,.r{opacity:0.2;}.h,.i{stroke:#fff;stroke-miterlimit:10;stroke-width:3px;}.ac,.i,.l{fill:#fff;}.j{fill:#d9c45e;}.k{fill:#c1c1c2;}.m{fill:#161517;}.n{fill:#dfdfe0;}.o{opacity:0.5;}.p{opacity:0.3;}.p,.r{isolation:isolate;}.q{fill:#a3a3a4;}.s{fill:#273e54;}.t{fill:#ead266;}.u{fill:#e8d266;}.v{fill:#fffffc;}.w{fill:#93ae62;}.x{fill:#accd72;}.y{fill:#b63523;}.z{fill:#f4f4f4;}.aa{fill:#bc6042;}.ab{fill:#f1cb68;}.ac,.ai,.ak{fill-rule:evenodd;}.ad{fill:#e79b83;}.ae{fill:#f4f7f6;}.af{fill:#80b4dc;}.ag{fill:#7d9db9;}.ah,.ak{fill:#3d4b5e;}.ai,.aj{fill:#fdfcff;}.al{fill:#606d81;}.am{fill:#0a0808;}.an{fill:#f0ab00;font-size:36px;font-family:Roboto-BoldCondensed, Roboto;font-weight:700;}.ao{stroke:none;}</style><clipPath id="a"><rect class="a" width="269.193" height="319.879"/></clipPath><linearGradient id="b" x1="0.826" y1="-0.347" x2="0.218" y2="1.233" gradientUnits="objectBoundingBox"><stop offset="0" stop-color="#79d5fc"/><stop offset="0.08" stop-color="#64afda"/><stop offset="0.186" stop-color="#4c84b4"/><stop offset="0.297" stop-color="#376093"/><stop offset="0.413" stop-color="#274278"/><stop offset="0.535" stop-color="#1a2b64"/><stop offset="0.666" stop-color="#111a55"/><stop offset="0.811" stop-color="#0b114c"/><stop offset="1" stop-color="#0a0e4a"/></linearGradient></defs><g transform="translate(-435 -711)"><g transform="translate(-261 -46)"><g transform="translate(761.865 757)"><g class="b" transform="translate(0.134)"><rect class="ao" width="204" height="320"/><rect class="a" x="0.5" y="0.5" width="203" height="319"/></g></g><g transform="translate(696.995 758.173)"><g class="c" transform="translate(0 0)"><rect class="d" width="555.69" height="362.112" transform="translate(-48.407 -16.335)"/><g class="e" transform="translate(-45.945 -16.184)"><path class="f" d="M-1915.39-1035.943l153.723-361.7h-31.979l-121.745,286.453Z" transform="translate(1915.39 1397.641)"/><g transform="translate(284.483)"><path class="f" d="M-1599.134-1035.679l153.836-361.962h-31.977l-153.836,361.962Z" transform="translate(1631.111 1397.641)"/></g><path class="f" d="M-1915.39-1179.336l92.781-218.305h-18.785l-74,174.1Z" transform="translate(1915.39 1397.641)"/><g transform="translate(106.147)"><path class="f" d="M-1790.534-1035.679l153.838-361.962h-18.786l-153.837,361.962Z" transform="translate(1809.319 1397.641)"/></g><g transform="translate(468.759 163.218)"><path class="f" d="M-1428.177-1035.8l65.679-154.541v-44.2l-84.467,198.744Z" transform="translate(1446.966 1234.54)"/></g><g transform="translate(340.121)"><path class="f" d="M-1556.723-1035.679l153.835-361.962h-18.788l-153.836,361.962Z" transform="translate(1575.512 1397.641)"/></g></g><g class="g" transform="translate(13.327 50.203)"><path class="h" d="M-1676.4-1291.826c-12.7-25.468-29.969-39.475-48.538-39.475-18.6,0-35.822,14.007-48.512,39.475-12.329,24.522-19.161,57.136-19.161,91.736,0,34.625,6.832,67.23,19.161,91.772,12.69,25.424,29.913,39.462,48.512,39.462,18.568,0,35.843-14.038,48.538-39.462,12.25-24.542,19.055-57.147,19.055-91.772C-1657.35-1234.69-1664.155-1267.3-1676.4-1291.826Z" transform="translate(1856.206 1331.301)"/><path class="h" d="M-1724.9-1331.3c-72.378,0-131.264,58.857-131.264,131.211,0,72.372,58.886,131.234,131.264,131.234,72.356,0,131.222-58.862,131.222-131.234C-1593.675-1272.444-1652.541-1331.3-1724.9-1331.3Z" transform="translate(1856.161 1331.301)"/><g transform="translate(0.036 63.64)"><line class="i" x2="224.382" transform="translate(19.002)"/><line class="i" x2="262.449" transform="translate(0 63.629)"/><line class="i" x2="234.001" transform="translate(14.322 127.221)"/></g><line class="h" y2="262.444" transform="translate(131.264 0)"/></g><g transform="translate(26.738 101.921)"><path class="j" d="M-1787.215-1108.775l-1.242-21.465s-.247-4.392,5.66-5.575,17.174-3.733,17.174-3.733Z" transform="translate(1842.799 1279.721)"/><g transform="translate(1.058 0)"><g transform="translate(103.604 37.889)"><g transform="translate(3.857 6.227)"><path class="k" d="M-1734.318-1213.959h0a17.014,17.014,0,0,0,23.945,2.371,17.018,17.018,0,0,0,2.372-23.947h0l-26.317,21.577Z" transform="translate(1734.318 1235.536)"/></g><path class="l" d="M-1731.944-1237.9a17.016,17.016,0,0,0-2.371,23.946l26.318-21.577A17.018,17.018,0,0,0-1731.944-1237.9Z" transform="translate(1738.172 1241.758)"/></g><g transform="translate(29.528 110.334)"><path class="l" d="M-1811.918-1149.073a.864.864,0,0,1,.054-1.315l22.875-18.753a.992.992,0,0,1,1.393.137l41.892,51.1a.991.991,0,0,1-.139,1.393l-16.769,13.755a1.144,1.144,0,0,1-1.478-.061Z" transform="translate(1812.195 1169.365)"/></g><g transform="translate(44.677 22.008)"><path class="l" d="M-1764.694-1156.085l70.548-35.753-53.937-65.79-48.975,62.069Z" transform="translate(1797.058 1257.628)"/></g><g transform="translate(0.404 112.183)"><path class="m" d="M-1841.075-1147.148a.993.993,0,0,1,.137-1.393l22.877-18.753a.994.994,0,0,1,1.393.137l20.32,24.787a.993.993,0,0,1-.138,1.394l-22.874,18.754a.994.994,0,0,1-1.394-.137Z" transform="translate(1841.298 1167.518)"/></g><g transform="translate(0.709 84.076)"><path class="n" d="M-1840.994-1159.473l43.967-36.131,32.363,39.475L-1808.63-1120Z" transform="translate(1840.994 1195.604)"/></g><g class="o" transform="translate(17.228 55.313)"><path class="k" d="M-1824.486-1139.3l15.844,19.325,43.968-36.13,70.548-35.753-26.632-32.484Z" transform="translate(1824.486 1224.346)"/></g><g class="p" transform="translate(47.564 129.666)"><rect class="q" width="28.6" height="4.253" transform="translate(0 18.134) rotate(-39.351)"/></g><g class="r" transform="translate(0 126.784)"><rect class="l" width="7.89" height="17.549" transform="translate(0 5.002) rotate(-39.347)"/></g><g transform="translate(49.208)"><g transform="translate(1.499 41.275)"><rect class="s" width="8.677" height="1.048" transform="matrix(0.938, -0.346, 0.346, 0.938, 0, 3.006)"/></g><g transform="translate(0 26.523)"><rect class="s" width="1.048" height="8.479" transform="translate(0 1.034) rotate(-80.494)"/></g><g transform="translate(7.318 10.437)"><rect class="s" width="1.047" height="8.433" transform="translate(0 0.808) rotate(-50.514)"/></g><g transform="translate(21.725)"><rect class="s" width="1.049" height="8.673" transform="matrix(0.938, -0.346, 0.346, 0.938, 0, 0.363)"/></g></g><g transform="translate(126.278 7.809)"><g transform="translate(0 0)"><rect class="l" width="11.724" height="1.415" transform="translate(0 11.437) rotate(-77.295)"/></g><g transform="translate(16.28 10.911)"><rect class="l" width="11.456" height="1.417" transform="matrix(0.675, -0.738, 0.738, 0.675, 0, 8.449)"/></g><g transform="translate(26.259 31.204)"><rect class="l" width="11.394" height="1.415" transform="translate(0 3.433) rotate(-17.538)"/></g><g transform="translate(27.119 52.957)"><rect class="l" width="1.417" height="11.718" transform="translate(0 1.382) rotate(-77.278)"/></g></g><g transform="translate(86.493 10.442)"><path class="m" d="M-1755.048-1261.654a.992.992,0,0,1,.139-1.393l7.215-5.916a1,1,0,0,1,1.394.138l63.469,77.418a.993.993,0,0,1-.138,1.393l-7.219,5.915a.993.993,0,0,1-1.393-.138Z" transform="translate(1755.271 1269.186)"/></g></g><path class="t" d="M-1752.582-1086.349a2.76,2.76,0,0,1-3.851.611l-29.759-21.593a2.757,2.757,0,0,1-.613-3.852l24.023-33.108a2.757,2.757,0,0,1,3.851-.611l29.76,21.593a2.76,2.76,0,0,1,.613,3.852Z" transform="translate(1842.8 1279.716)"/><path class="u" d="M-1760.935-1130.247a4.872,4.872,0,0,1-6.8,1.082h0a4.872,4.872,0,0,1-1.081-6.8l21.428-29.533a4.875,4.875,0,0,1,6.806-1.083h0a4.874,4.874,0,0,1,1.081,6.8Z" transform="translate(1842.812 1279.701)"/><path class="u" d="M-1760.908-1111.829a4.871,4.871,0,0,1-6.8,1.081h0a4.87,4.87,0,0,1-1.082-6.8l21.429-29.533a4.871,4.871,0,0,1,6.8-1.082h0a4.869,4.869,0,0,1,1.082,6.8Z" transform="translate(1842.812 1279.714)"/><path class="u" d="M-1753.366-1103.765a4.873,4.873,0,0,1-6.8,1.082h0a4.872,4.872,0,0,1-1.084-6.8l21.431-29.534a4.872,4.872,0,0,1,6.8-1.082h0a4.871,4.871,0,0,1,1.082,6.8Z" transform="translate(1842.818 1279.719)"/><path class="u" d="M-1744.93-1096.935a4.872,4.872,0,0,1-6.8,1.082h0a4.872,4.872,0,0,1-1.083-6.8l21.429-29.534a4.873,4.873,0,0,1,6.8-1.082h0a4.875,4.875,0,0,1,1.083,6.8Z" transform="translate(1842.824 1279.724)"/><path class="v" d="M-1740.693-1160.593a3.443,3.443,0,0,1-4.812.764h0a3.445,3.445,0,0,1-.767-4.813h0a3.448,3.448,0,0,1,4.814-.767h0a3.446,3.446,0,0,1,.765,4.815Z" transform="translate(1842.828 1279.702)"/><rect class="l" width="3.446" height="42.283" transform="matrix(0.587, -0.809, 0.809, 0.587, 52.351, 173.556)"/><path class="w" d="M-1757.806-1079.126a2.757,2.757,0,0,0-.613-3.851l-29.758-21.592a2.758,2.758,0,0,0-3.852.612l-50.2,69.192a2.756,2.756,0,0,0,.612,3.852l29.758,21.592a2.757,2.757,0,0,0,3.853-.612Z" transform="translate(1842.76 1279.745)"/><path class="x" d="M-1772.733-1093.363l-15.444-11.206a2.758,2.758,0,0,0-3.852.612l-50.2,69.192a2.756,2.756,0,0,0,.612,3.852l15.444,11.2Z" transform="translate(1842.76 1279.745)"/></g><g transform="translate(219.773 147.558)"><path class="y" d="M-1629.84-1206.922l4.67-.394,19.492-1.649.494-.705-8.607-20.185-21.865-1.138-.493.705,5.078,18.8Z" transform="translate(1649.872 1234.018)"/><rect class="z" width="25.589" height="34.438" transform="translate(3.19 20.965) rotate(-55.015)"/><path class="y" d="M-1635.646-1230.993l-14.216,20.315,19.293-1.514Z" transform="translate(1649.862 1234.018)"/><path class="aa" d="M-1629.336-1207.641l-1.233-4.564-19.293,1.514,30.471,21.324-5.276-18.666Z" transform="translate(1649.862 1234.032)"/><path class="y" d="M-1624.685-1208.036l5.276,18.667,14.217-20.315Z" transform="translate(1649.88 1234.033)"/></g><g transform="translate(221.238 68.675)"><path class="z" d="M-1622.643-1283.125v-25.75a25.75,25.75,0,0,0-25.755,25.75h0a25.753,25.753,0,0,0,25.756,25.747h0a25.748,25.748,0,0,0,25.752-25.747h-25.753Z" transform="translate(1648.399 1312.845)"/><path class="ab" d="M-1618.694-1312.842v25.751h25.754A25.752,25.752,0,0,0-1618.694-1312.842Z" transform="translate(1648.42 1312.842)"/></g><g class="o" transform="translate(-26.024 1.848)"><g transform="translate(27.665 240.109)"><path class="l" d="M-1852.659-1139.685a15.173,15.173,0,0,0-15.179,15.17,15.182,15.182,0,0,0,15.179,15.179,15.177,15.177,0,0,0,15.178-15.179A15.168,15.168,0,0,0-1852.659-1139.685Zm-2.238,21.049-5.76-5.768,1.524-1.52,4.236,4.24,8.707-8.709,1.532,1.525Z" transform="translate(1867.838 1139.685)"/></g><g transform="translate(385.06 256.182)"><path class="l" d="M-1500.567-1104.363a10.834,10.834,0,0,1-7.435-2.4,8.4,8.4,0,0,1-2.7-6.587,10.244,10.244,0,0,1,2.8-7.35,9.491,9.491,0,0,1,7.112-2.918,8.678,8.678,0,0,1,6.232,2.228,7.407,7.407,0,0,1,2.323,5.559,7.569,7.569,0,0,1-1.71,5.263,5.561,5.561,0,0,1-4.274,1.872,1.83,1.83,0,0,1-1.295-.455,1.647,1.647,0,0,1-.541-1.121l-.025-.347-.2.283a3.531,3.531,0,0,1-3.009,1.64,3.362,3.362,0,0,1-2.541-1.071,4.18,4.18,0,0,1-1.009-2.962,7.341,7.341,0,0,1,1.631-4.7,4.564,4.564,0,0,1,3.509-2.028,3.688,3.688,0,0,1,3.09,1.246l.161.212.063-.259.213-.909h1.544l-1.53,6.656a8.131,8.131,0,0,0-.264,1.72c0,.748.423.857.677.857a3.756,3.756,0,0,0,3.02-1.588,6.863,6.863,0,0,0,1.244-4.342,6.135,6.135,0,0,0-2.052-4.739,7.592,7.592,0,0,0-5.277-1.856,8.11,8.11,0,0,0-6.221,2.64,9.255,9.255,0,0,0-2.428,6.47,7.333,7.333,0,0,0,2.337,5.781,9.6,9.6,0,0,0,6.536,2.053,10.609,10.609,0,0,0,4.212-.755l.609,1.008a12.3,12.3,0,0,1-4.807.9Zm-.993-13.853a3.133,3.133,0,0,0-2.556,1.731,6.674,6.674,0,0,0-1.1,3.681c0,1.9.774,2.866,2.3,2.866a2.967,2.967,0,0,0,2.084-.924,4.858,4.858,0,0,0,1.311-2.463l.788-3.452a3.044,3.044,0,0,0-2.828-1.438Z" transform="translate(1510.699 1123.623)"/></g><path class="l" d="M-1838.155-1225.243l-4.138-4.137,3.7-3.7a.427.427,0,0,0,0-.6l-1.156-1.156a.428.428,0,0,0-.6,0l-3.7,3.7-3.7-3.7a.431.431,0,0,0-.6,0l-1.155,1.158a.428.428,0,0,0,0,.6l3.7,3.7-4.136,4.136a.424.424,0,0,0,0,.6l1.155,1.157a.43.43,0,0,0,.6,0l4.137-4.136,4.138,4.136a.429.429,0,0,0,.6,0l1.157-1.157A.431.431,0,0,0-1838.155-1225.243Z" transform="translate(1895.516 1379.726)"/><g transform="translate(0 240.334)"><g transform="translate(0 56.129)"><path class="l" d="M-1895.483-1072v-11.372l7.823,5.685Z" transform="translate(1895.483 1083.371)"/></g><path class="l" d="M-1887.666-1072v-11.372l7.823,5.685Z" transform="translate(1895.489 1139.5)"/><path class="l" d="M-1879.849-1072v-11.372l7.823,5.685Z" transform="translate(1895.495 1139.5)"/><path class="l" d="M-1685.46-1128.087v-11.373l7.823,5.685Z" transform="translate(1895.634 1139.46)"/></g><g transform="translate(82.456)"><path class="l" d="M-1813.087-1368.249v-11.373l7.823,5.685Z" transform="translate(1813.087 1379.622)"/><path class="l" d="M-1805.27-1368.249v-11.373l7.823,5.685Z" transform="translate(1813.092 1379.622)"/><path class="l" d="M-1797.452-1368.249v-11.373l7.823,5.685Z" transform="translate(1813.098 1379.622)"/><path class="l" d="M-1581.892-1343.74v-11.373l7.823,5.685Z" transform="translate(1813.252 1379.64)"/></g><g transform="translate(388.668 202.853)"><path class="l" d="M-1492.23-1176.914a14.863,14.863,0,0,0-14.864,14.864,14.863,14.863,0,0,0,14.864,14.864,14.864,14.864,0,0,0,14.864-14.864A14.865,14.865,0,0,0-1492.23-1176.914Zm7.01,15.925v8.9h-13.938v-11.055h1.441v-3.157a5.507,5.507,0,0,1,5.528-5.309,5.506,5.506,0,0,1,5.527,5.309v3.157h1.442Z" transform="translate(1507.094 1176.914)"/><path class="l" d="M-1492.2-1170.018a3.966,3.966,0,0,0-4.086,3.716v3.157h8.172v-3.157A3.966,3.966,0,0,0-1492.2-1170.018Z" transform="translate(1507.102 1176.919)"/></g><path class="l" d="M-1711.2-1090.625v-2.638h-2.093a9.857,9.857,0,0,0-.644-2.441l1.8-1.043-1.319-2.285-1.812,1.046a9.943,9.943,0,0,0-1.786-1.783l1.047-1.813-2.285-1.319-1.043,1.805a9.814,9.814,0,0,0-2.441-.646v-2.094h-2.639v2.094a9.79,9.79,0,0,0-2.441.646l-1.044-1.805-2.284,1.319,1.046,1.813a9.884,9.884,0,0,0-1.784,1.784l-1.813-1.047-1.319,2.285,1.806,1.043a9.852,9.852,0,0,0-.646,2.442h-2.093v2.638h2.093a9.836,9.836,0,0,0,.646,2.442l-1.806,1.043,1.32,2.285,1.813-1.047a9.886,9.886,0,0,0,1.784,1.784l-1.046,1.812,2.284,1.32,1.045-1.805a9.78,9.78,0,0,0,2.44.646v2.092h2.639v-2.093a9.8,9.8,0,0,0,2.441-.646l1.043,1.805,2.285-1.32-1.046-1.812a9.893,9.893,0,0,0,1.784-1.784l1.812,1.047,1.32-2.285-1.805-1.043a9.864,9.864,0,0,0,.644-2.442Zm-11.891.89a2.208,2.208,0,0,1-2.208-2.208,2.209,2.209,0,0,1,2.208-2.209,2.209,2.209,0,0,1,2.208,2.209A2.208,2.208,0,0,1-1723.087-1089.735Z" transform="translate(1895.598 1379.82)"/><path class="ac" d="M17.534,5.9.972.087A.762.762,0,0,0,.151.152.767.767,0,0,0,.087.973l5.8,16.577a.963.963,0,0,0,.917.681c.443,0,.7-.382.924-.707l2.863-4.7,5.558,5.566a1.574,1.574,0,0,0,2.225-2.227l-5.563-5.56,4.7-2.868c.324-.221.707-.479.707-.924A.964.964,0,0,0,17.534,5.9Z" transform="translate(71.82 85.134)"/></g><path class="z" d="M-1815.3-1325.047l2.179,1.724-1.64,2.075-2.03-1.608a10.893,10.893,0,0,1-3.737,2.894l-1.972-2.594a9.507,9.507,0,0,0,3.712-2.777c.953-1.2,1.136-2.435.311-3.088-.8-.636-1.864-.341-3.632.808-2.554,1.66-4.834,2.367-6.886.744-1.883-1.491-2.305-3.958-.937-6.557l-2.01-1.591,1.642-2.073,1.861,1.472a9.547,9.547,0,0,1,3.143-2.536l1.889,2.528a8.379,8.379,0,0,0-3.153,2.461c-1.089,1.376-.825,2.3-.233,2.773.677.536,1.727.164,3.807-1.115,2.9-1.836,4.849-1.908,6.773-.386C-1814.331-1330.4-1813.782-1327.837-1815.3-1325.047Z" transform="translate(1869.505 1381.499)"/><path class="u" d="M-1631.736-1073.672l2.178,1.724-1.639,2.075-2.031-1.608a10.893,10.893,0,0,1-3.737,2.894l-1.973-2.594a9.5,9.5,0,0,0,3.712-2.777c.953-1.2,1.137-2.434.311-3.087-.8-.637-1.864-.342-3.631.807-2.554,1.66-4.835,2.367-6.886.743-1.883-1.49-2.3-3.957-.937-6.555l-2.01-1.591,1.642-2.073,1.861,1.472a9.533,9.533,0,0,1,3.143-2.535l1.889,2.527a8.385,8.385,0,0,0-3.152,2.461c-1.089,1.376-.826,2.3-.233,2.773.678.536,1.727.164,3.807-1.115,2.9-1.836,4.85-1.908,6.773-.386C-1630.766-1079.027-1630.217-1076.461-1631.736-1073.672Z" transform="translate(1869.636 1381.679)"/><g transform="translate(308.393 39.765)"><g transform="translate(0 32.489)"><path class="ad" d="M-1554.937-1289.674a2.284,2.284,0,0,1-3.182-.171l-2.216-1.968a2.283,2.283,0,0,1-.553-3.139l12.145-13.749a2.287,2.287,0,0,1,3.183.174l2.218,1.967a2.285,2.285,0,0,1,.551,3.14Z" transform="translate(1561.306 1309.266)"/></g><g transform="translate(1.509)"><path class="ad" d="M-1528.667-1341.69a15.452,15.452,0,0,0-14.377,16.428,15.129,15.129,0,0,0,3.535,8.672l-19.739,22.506a2.213,2.213,0,0,0-.543,1.622,2.2,2.2,0,0,0,.75,1.506,2.219,2.219,0,0,0,3.13-.205l19.712-22.478a15.577,15.577,0,0,0,9.76,2.553,15.456,15.456,0,0,0,14.377-16.431A15.454,15.454,0,0,0-1528.667-1341.69Zm.286,3.929a11.511,11.511,0,0,1,12.386,10.531,11.509,11.509,0,0,1-10.733,12.213,11.51,11.51,0,0,1-12.386-10.531A11.513,11.513,0,0,1-1528.381-1337.761Z" transform="translate(1559.798 1341.732)"/></g><g transform="translate(21.187 2.678)"><path class="ae" d="M-1526.468-1313.608a12.739,12.739,0,0,1-13.632-11.781,12.74,12.74,0,0,1,11.784-13.633,12.742,12.742,0,0,1,13.631,11.782A12.741,12.741,0,0,1-1526.468-1313.608Z" transform="translate(1540.134 1339.056)"/></g><g transform="translate(36.992 9.982)"><path class="af" d="M-1523.089-1325.323a3.673,3.673,0,0,1-.339-5.184,3.673,3.673,0,0,1,5.185-.337,3.672,3.672,0,0,1,.337,5.184A3.672,3.672,0,0,1-1523.089-1325.323Z" transform="translate(1524.34 1331.758)"/></g><g transform="translate(32.2 13.742)"><path class="af" d="M-1528.506-1324.8a1.83,1.83,0,0,1-.167-2.582,1.83,1.83,0,0,1,2.582-.168,1.83,1.83,0,0,1,.168,2.581A1.831,1.831,0,0,1-1528.506-1324.8Z" transform="translate(1529.128 1328)"/></g></g><g transform="translate(168.933 202.548)"><g transform="translate(0 31.955)"><path class="ag" d="M-1700.666-1147.133v47.381a3.791,3.791,0,0,0,3.788,3.775h120.21a3.792,3.792,0,0,0,3.786-3.775v-47.381Z" transform="translate(1700.666 1147.133)"/></g><path class="ag" d="M-1572.882-1127.909v-47.381a3.791,3.791,0,0,0-3.788-3.775h-120.21a3.792,3.792,0,0,0-3.787,3.775v47.381Z" transform="translate(1700.666 1179.065)"/><g transform="translate(12.262 9.994)"><rect class="ah" width="103.26" height="62.996"/></g><g transform="translate(12.262 55.744)"><rect class="ad" width="103.26" height="17.245"/></g><g transform="translate(19.713 58.912)"><path class="ai" d="M-1671.288-1114.507l-8.169,4.735a1.323,1.323,0,0,1-.623.158.275.275,0,0,1-.058.01.759.759,0,0,1-.829-.659v-9.272a.759.759,0,0,1,.827-.661h.016a1.362,1.362,0,0,1,.667.164l8.169,4.733A.419.419,0,0,1-1671.288-1114.507Z" transform="translate(1680.967 1120.195)"/></g><g transform="translate(36.449 62.91)"><rect class="aj" width="73.352" height="2.652"/></g><g transform="translate(47.054 60.388)"><path class="ak" d="M-1645.972-1114.883a3.838,3.838,0,0,1-3.837,3.836,3.836,3.836,0,0,1-3.837-3.836,3.838,3.838,0,0,1,3.837-3.837A3.839,3.839,0,0,1-1645.972-1114.883Z" transform="translate(1653.646 1118.72)"/></g><g transform="translate(20.757 26.663)"><path class="l" d="M-1679.924-1145.641a1.432,1.432,0,0,1,.42-1.012l5.348-5.349a1.431,1.431,0,0,1,2.024,0,1.429,1.429,0,0,1,0,2.024l-3.294,4.336,3.294,4.337a1.429,1.429,0,0,1,0,2.024,1.432,1.432,0,0,1-2.024,0l-5.348-5.349A1.425,1.425,0,0,1-1679.924-1145.641Z" transform="translate(1679.924 1152.421)"/></g><g transform="translate(98.814 26.663)"><path class="l" d="M-1593.711-1145.641a1.427,1.427,0,0,1-.419,1.013l-5.348,5.349a1.433,1.433,0,0,1-2.024,0,1.431,1.431,0,0,1,0-2.024l3.3-4.337-3.3-4.336a1.431,1.431,0,0,1,0-2.024,1.432,1.432,0,0,1,2.024,0l5.348,5.349A1.431,1.431,0,0,1-1593.711-1145.641Z" transform="translate(1601.922 1152.421)"/></g><g transform="translate(36.897 15.792)"><path class="l" d="M5.4,0H48.984a5.4,5.4,0,0,1,5.4,5.4V28.235a5.4,5.4,0,0,1-5.4,5.4H5.4a5.4,5.4,0,0,1-5.4-5.4V5.4A5.4,5.4,0,0,1,5.4,0Z"/></g></g><g transform="translate(-13.224 107.376)"><path class="al" d="M-1857.63-1258.681c-13.842,0-25.063,8.866-25.063,19.811,0,7.881,5.821,14.686,14.248,17.874a15.819,15.819,0,0,1-7.257,7.291c12.493.3,15.911-5.431,15.911-5.431l0,0c.711.047,1.43.079,2.159.079,13.841,0,25.063-8.87,25.063-19.811S-1843.789-1258.681-1857.63-1258.681Z" transform="translate(1882.693 1274.18)"/><path class="ab" d="M-1834.981-1274.169c16.35,0,29.6,10.477,29.6,23.4,0,9.309-6.876,17.346-16.834,21.113a18.708,18.708,0,0,0,8.579,8.612c-14.76.351-18.8-6.414-18.8-6.414l0,0c-.842.057-1.691.091-2.552.091-16.352,0-29.606-10.475-29.606-23.4S-1851.333-1274.169-1834.981-1274.169Z" transform="translate(1882.706 1274.169)"/><path class="z" d="M-1851.894-1250.365a3.966,3.966,0,0,0,3.963,3.964,3.964,3.964,0,0,0,3.962-3.964,3.96,3.96,0,0,0-3.962-3.961A3.961,3.961,0,0,0-1851.894-1250.365Z" transform="translate(1882.715 1274.183)"/><path class="z" d="M-1839.29-1250.365a3.964,3.964,0,0,0,3.963,3.964,3.965,3.965,0,0,0,3.961-3.964,3.96,3.96,0,0,0-3.961-3.961A3.96,3.96,0,0,0-1839.29-1250.365Z" transform="translate(1882.724 1274.183)"/><path class="z" d="M-1826.5-1250.365a3.966,3.966,0,0,0,3.965,3.964,3.965,3.965,0,0,0,3.961-3.964,3.96,3.96,0,0,0-3.961-3.961A3.962,3.962,0,0,0-1826.5-1250.365Z" transform="translate(1882.733 1274.183)"/></g><g transform="translate(271.835 182.36)"><path class="ab" d="M-1553.155-1176.9a22.34,22.34,0,0,1-22.342,22.34,22.341,22.341,0,0,1-22.341-22.34,22.341,22.341,0,0,1,22.341-22.342A22.341,22.341,0,0,1-1553.155-1176.9Z" transform="translate(1597.838 1199.239)"/><path class="z" d="M-1584.106-1167.137c0,1.948,1.36,2.709,3.022,1.7l15.75-9.621c1.661-1.012,1.661-2.673,0-3.689l-15.75-9.618c-1.662-1.013-3.022-.249-3.022,1.7Z" transform="translate(1597.848 1199.246)"/></g><g transform="translate(-23.623 49.146)"><rect class="l" width="7.903" height="33.791" transform="translate(54.53 7.751)"/><rect class="ab" width="7.903" height="41.409" transform="translate(43.077 0.133)"/><rect class="l" width="7.905" height="27.527" transform="translate(31.621 14.016)"/><rect class="ab" width="7.905" height="20.188" transform="translate(20.168 21.354)"/><rect class="l" width="7.903" height="33.791" transform="translate(8.714 7.751)"/><path class="ab" d="M-1829.55-1283.274h-63.535v-49.084h4.25v44.834h59.285Z" transform="translate(1893.085 1332.358)"/></g><rect class="a" width="553.227" height="361.911" transform="translate(-45.945 -16.397)"/></g></g><rect class="am" width="270" height="95" transform="translate(696 983)"/><text class="an" transform="translate(831 1023)"><tspan x="-49.201" y="0">Global </tspan><tspan x="-71.464" y="40">Marketing</tspan></text></g></g></svg>