<svg xmlns="http://www.w3.org/2000/svg" xmlns:xlink="http://www.w3.org/1999/xlink" width="686" height="393" viewBox="0 0 686 393">
  <defs>
    <clipPath id="clip-path">
      <path id="Path_4724" data-name="Path 4724" d="M74,0H717V-361H74Z" fill="none"/>
    </clipPath>
    <clipPath id="clip-path-3">
      <path id="Path_4728" data-name="Path 4728" d="M155-55H707V-348H155Z" fill="none"/>
    </clipPath>
    <clipPath id="clip-path-17">
      <path id="Path_4771" data-name="Path 4771" d="M74,0H717V-361H74Z" transform="translate(0 1)" fill="none"/>
    </clipPath>
    <clipPath id="clip-path-21">
      <path id="Path_4775" data-name="Path 4775" d="M74,0H717V-361H74Z" transform="translate(0 2)" fill="none"/>
    </clipPath>
    <clipPath id="clip-iPhone_X_XS_11_Pro_1">
      <rect width="686" height="393"/>
    </clipPath>
  </defs>
  <g id="iPhone_X_XS_11_Pro_1" data-name="iPhone X/XS/11 Pro – 1" clip-path="url(#clip-iPhone_X_XS_11_Pro_1)">
    <rect width="686" height="393" fill="#fff"/>
    <g id="Group_2466" data-name="Group 2466" transform="translate(-52 381)">
      <g id="Group_2395" data-name="Group 2395" clip-path="url(#clip-path)">
        <g id="Group_2394" data-name="Group 2394" transform="translate(155.5 -330.5)">
          <path id="Path_4723" data-name="Path 4723" d="M0,241H551M0,207H551M0,172H551M0,138H551M0,103H551M0,69H551M0,34H551M0,0H551" fill="none" stroke="#f1f1f1" stroke-linejoin="round" stroke-width="1"/>
        </g>
      </g>
      <g id="Group_2397" data-name="Group 2397" clip-path="url(#clip-path)">
        <g id="Group_2396" data-name="Group 2396" transform="translate(155.5 -55.5)">
          <path id="Path_4725" data-name="Path 4725" d="M0,0H551" fill="none" stroke="#c4e4fa" stroke-linejoin="round" stroke-width="1"/>
        </g>
      </g>
      <g id="Group_2399" data-name="Group 2399" clip-path="url(#clip-path-3)">
        <g id="Group_2398" data-name="Group 2398" transform="translate(195 -231)">
          <path id="Path_4727" data-name="Path 4727" d="M0,0,79,95l78,3,79,9,79,16,79,10,78,34" fill="none" stroke="#0a5bc3" stroke-linecap="round" stroke-linejoin="round" stroke-width="2"/>
        </g>
      </g>
      <g id="Group_2407" data-name="Group 2407" clip-path="url(#clip-path)">
        <path id="Path_4729" data-name="Path 4729" d="M195.951-231.559a2,2,0,0,1-2,2,2,2,0,0,1-2-2,2,2,0,0,1,2-2A2,2,0,0,1,195.951-231.559Z" fill="#0a5bc3"/>
        <g id="Group_2400" data-name="Group 2400" transform="translate(191.451 -234.059)">
          <path id="Path_4730" data-name="Path 4730" d="M4.5,2.5a2,2,0,1,1-2-2A2,2,0,0,1,4.5,2.5Z" fill="none" stroke="#0a5bc3" stroke-linejoin="round" stroke-width="1"/>
        </g>
        <path id="Path_4731" data-name="Path 4731" d="M274.951-136.559a2,2,0,0,1-2,2,2,2,0,0,1-2-2,2,2,0,0,1,2-2A2,2,0,0,1,274.951-136.559Z" fill="#0a5bc3"/>
        <g id="Group_2401" data-name="Group 2401" transform="translate(270.451 -139.059)">
          <path id="Path_4732" data-name="Path 4732" d="M4.5,2.5a2,2,0,1,1-2-2A2,2,0,0,1,4.5,2.5Z" fill="none" stroke="#0a5bc3" stroke-linejoin="round" stroke-width="1"/>
        </g>
        <path id="Path_4733" data-name="Path 4733" d="M353.951-133.559a2,2,0,0,1-2,2,2,2,0,0,1-2-2,2,2,0,0,1,2-2A2,2,0,0,1,353.951-133.559Z" fill="#0a5bc3"/>
        <g id="Group_2402" data-name="Group 2402" transform="translate(349.451 -136.059)">
          <path id="Path_4734" data-name="Path 4734" d="M4.5,2.5a2,2,0,1,1-2-2A2,2,0,0,1,4.5,2.5Z" fill="none" stroke="#0a5bc3" stroke-linejoin="round" stroke-width="1"/>
        </g>
        <path id="Path_4735" data-name="Path 4735" d="M432.951-124.56a2,2,0,0,1-2,2,2,2,0,0,1-2-2,2,2,0,0,1,2-2A2,2,0,0,1,432.951-124.56Z" fill="#0a5bc3"/>
        <g id="Group_2403" data-name="Group 2403" transform="translate(428.451 -127.06)">
          <path id="Path_4736" data-name="Path 4736" d="M4.5,2.5a2,2,0,1,1-2-2A2,2,0,0,1,4.5,2.5Z" fill="none" stroke="#0a5bc3" stroke-linejoin="round" stroke-width="1"/>
        </g>
        <path id="Path_4737" data-name="Path 4737" d="M510.951-109.56a2,2,0,0,1-2,2,2,2,0,0,1-2-2,2,2,0,0,1,2-2A2,2,0,0,1,510.951-109.56Z" fill="#0a5bc3"/>
        <g id="Group_2404" data-name="Group 2404" transform="translate(506.451 -112.06)">
          <path id="Path_4738" data-name="Path 4738" d="M4.5,2.5a2,2,0,1,1-2-2A2,2,0,0,1,4.5,2.5Z" fill="none" stroke="#0a5bc3" stroke-linejoin="round" stroke-width="1"/>
        </g>
        <path id="Path_4739" data-name="Path 4739" d="M589.951-99.56a2,2,0,0,1-2,2,2,2,0,0,1-2-2,2,2,0,0,1,2-2A2,2,0,0,1,589.951-99.56Z" fill="#0a5bc3"/>
        <g id="Group_2405" data-name="Group 2405" transform="translate(585.451 -102.06)">
          <path id="Path_4740" data-name="Path 4740" d="M4.5,2.5a2,2,0,1,1-2-2A2,2,0,0,1,4.5,2.5Z" fill="none" stroke="#0a5bc3" stroke-linejoin="round" stroke-width="1"/>
        </g>
        <path id="Path_4741" data-name="Path 4741" d="M668.951-64.56a2,2,0,0,1-2,2,2,2,0,0,1-2-2,2,2,0,0,1,2-2A2,2,0,0,1,668.951-64.56Z" fill="#0a5bc3"/>
        <g id="Group_2406" data-name="Group 2406" transform="translate(664.451 -67.06)">
          <path id="Path_4742" data-name="Path 4742" d="M4.5,2.5a2,2,0,1,1-2-2A2,2,0,0,1,4.5,2.5Z" fill="none" stroke="#0a5bc3" stroke-linejoin="round" stroke-width="1"/>
        </g>
      </g>
      <g id="Group_2409" data-name="Group 2409" clip-path="url(#clip-path-3)">
        <g id="Group_2408" data-name="Group 2408" transform="translate(195 -313)">
          <path id="Path_4744" data-name="Path 4744" d="M0,0,79,117l78-2,79-46,79,56,79-31,78,86" fill="none" stroke="#e7114b" stroke-linecap="round" stroke-linejoin="round" stroke-width="2"/>
        </g>
      </g>
      <g id="Group_2417" data-name="Group 2417" clip-path="url(#clip-path)">
        <path id="Path_4746" data-name="Path 4746" d="M195.951-314.56a2,2,0,0,1-2,2,2,2,0,0,1-2-2,2,2,0,0,1,2-2A2,2,0,0,1,195.951-314.56Z" fill="#e7114b"/>
        <g id="Group_2410" data-name="Group 2410" transform="translate(191.451 -317.06)">
          <path id="Path_4747" data-name="Path 4747" d="M4.5,2.5a2,2,0,1,1-2-2A2,2,0,0,1,4.5,2.5Z" fill="none" stroke="#e7114b" stroke-linejoin="round" stroke-width="1"/>
        </g>
        <path id="Path_4748" data-name="Path 4748" d="M274.951-197.559a2,2,0,0,1-2,2,2,2,0,0,1-2-2,2,2,0,0,1,2-2A2,2,0,0,1,274.951-197.559Z" fill="#e7114b"/>
        <g id="Group_2411" data-name="Group 2411" transform="translate(270.451 -200.059)">
          <path id="Path_4749" data-name="Path 4749" d="M4.5,2.5a2,2,0,1,1-2-2A2,2,0,0,1,4.5,2.5Z" fill="none" stroke="#e7114b" stroke-linejoin="round" stroke-width="1"/>
        </g>
        <path id="Path_4750" data-name="Path 4750" d="M353.951-198.559a2,2,0,0,1-2,2,2,2,0,0,1-2-2,2,2,0,0,1,2-2A2,2,0,0,1,353.951-198.559Z" fill="#e7114b"/>
        <g id="Group_2412" data-name="Group 2412" transform="translate(349.451 -201.059)">
          <path id="Path_4751" data-name="Path 4751" d="M4.5,2.5a2,2,0,1,1-2-2A2,2,0,0,1,4.5,2.5Z" fill="none" stroke="#e7114b" stroke-linejoin="round" stroke-width="1"/>
        </g>
        <path id="Path_4752" data-name="Path 4752" d="M432.951-245.559a2,2,0,0,1-2,2,2,2,0,0,1-2-2,2,2,0,0,1,2-2A2,2,0,0,1,432.951-245.559Z" fill="#e7114b"/>
        <g id="Group_2413" data-name="Group 2413" transform="translate(428.451 -248.059)">
          <path id="Path_4753" data-name="Path 4753" d="M4.5,2.5a2,2,0,1,1-2-2A2,2,0,0,1,4.5,2.5Z" fill="none" stroke="#e7114b" stroke-linejoin="round" stroke-width="1"/>
        </g>
        <path id="Path_4754" data-name="Path 4754" d="M510.951-188.559a2,2,0,0,1-2,2,2,2,0,0,1-2-2,2,2,0,0,1,2-2A2,2,0,0,1,510.951-188.559Z" fill="#e7114b"/>
        <g id="Group_2414" data-name="Group 2414" transform="translate(506.451 -191.059)">
          <path id="Path_4755" data-name="Path 4755" d="M4.5,2.5a2,2,0,1,1-2-2A2,2,0,0,1,4.5,2.5Z" fill="none" stroke="#e7114b" stroke-linejoin="round" stroke-width="1"/>
        </g>
        <path id="Path_4756" data-name="Path 4756" d="M589.951-219.559a2,2,0,0,1-2,2,2,2,0,0,1-2-2,2,2,0,0,1,2-2A2,2,0,0,1,589.951-219.559Z" fill="#e7114b"/>
        <g id="Group_2415" data-name="Group 2415" transform="translate(585.451 -222.059)">
          <path id="Path_4757" data-name="Path 4757" d="M4.5,2.5a2,2,0,1,1-2-2A2,2,0,0,1,4.5,2.5Z" fill="none" stroke="#e7114b" stroke-linejoin="round" stroke-width="1"/>
        </g>
        <path id="Path_4758" data-name="Path 4758" d="M668.951-133.559a2,2,0,0,1-2,2,2,2,0,0,1-2-2,2,2,0,0,1,2-2A2,2,0,0,1,668.951-133.559Z" fill="#e7114b"/>
        <g id="Group_2416" data-name="Group 2416" transform="translate(664.451 -136.059)">
          <path id="Path_4759" data-name="Path 4759" d="M4.5,2.5a2,2,0,1,1-2-2A2,2,0,0,1,4.5,2.5Z" fill="none" stroke="#e7114b" stroke-linejoin="round" stroke-width="1"/>
        </g>
      </g>
      <g id="Group_2419" data-name="Group 2419" clip-path="url(#clip-path)">
        <g id="Group_2418" data-name="Group 2418" transform="translate(90.001 337)">
          <text id="_30_000.00" data-name="$30,000.00" transform="translate(0 -389)" fill="#1386d9" font-size="10" font-family="ArialMT, Arial"><tspan x="0" y="0">$30,000.00</tspan></text>
        </g>
      </g>
      <g id="Group_2421" data-name="Group 2421" clip-path="url(#clip-path)">
        <g id="Group_2420" data-name="Group 2420" transform="translate(90.001 302)">
          <text id="_50_000.00" data-name="$50,000.00" transform="translate(0 -389)" fill="#1386d9" font-size="10" font-family="ArialMT, Arial"><tspan x="0" y="0">$50,000.00</tspan></text>
        </g>
      </g>
      <g id="Group_2423" data-name="Group 2423" clip-path="url(#clip-path)">
        <g id="Group_2422" data-name="Group 2422" transform="translate(90.001 268)">
          <text id="_70_000.00" data-name="$70,000.00" transform="translate(0 -389)" fill="#1386d9" font-size="10" font-family="ArialMT, Arial"><tspan x="0" y="0">$70,000.00</tspan></text>
        </g>
      </g>
      <g id="Group_2425" data-name="Group 2425" clip-path="url(#clip-path)">
        <g id="Group_2424" data-name="Group 2424" transform="translate(90.001 234)">
          <text id="_90_000.00" data-name="$90,000.00" transform="translate(0 -389)" fill="#1386d9" font-size="10" font-family="ArialMT, Arial"><tspan x="0" y="0">$90,000.00</tspan></text>
        </g>
      </g>
      <g id="Group_2427" data-name="Group 2427" clip-path="url(#clip-path)">
        <g id="Group_2426" data-name="Group 2426" transform="translate(80.95 199)">
          <g id="Group">
            <text id="_1_10_000.00" data-name="$1,10,000.00" transform="translate(0 -389)" fill="#1386d9" font-size="10" font-family="ArialMT, Arial"><tspan x="0" y="0">$1,10,000.00</tspan></text>
          </g>
        </g>
      </g>
      <g id="Group_2429" data-name="Group 2429" clip-path="url(#clip-path)">
        <g id="Group_2428" data-name="Group 2428" transform="translate(80.95 165)">
          <g id="Group-2" data-name="Group">
            <text id="_1_30_000.00" data-name="$1,30,000.00" transform="translate(0 -389)" fill="#1386d9" font-size="10" font-family="ArialMT, Arial"><tspan x="0" y="0">$1,30,000.00</tspan></text>
          </g>
        </g>
      </g>
      <g id="Group_2431" data-name="Group 2431" clip-path="url(#clip-path)">
        <g id="Group_2430" data-name="Group 2430" transform="translate(80.95 130)">
          <g id="Group-3" data-name="Group">
            <text id="_1_50_000.00" data-name="$1,50,000.00" transform="translate(0 -389)" fill="#1386d9" font-size="10" font-family="ArialMT, Arial"><tspan x="0" y="0">$1,50,000.00</tspan></text>
          </g>
        </g>
      </g>
      <g id="Group_2433" data-name="Group 2433" clip-path="url(#clip-path)">
        <g id="Group_2432" data-name="Group 2432" transform="translate(80.95 96)">
          <g id="Group-4" data-name="Group">
            <text id="_1_70_000.00" data-name="$1,70,000.00" transform="translate(0 -389)" fill="#1386d9" font-size="10" font-family="ArialMT, Arial"><tspan x="0" y="0">$1,70,000.00</tspan></text>
          </g>
        </g>
      </g>
      <g id="Group_2435" data-name="Group 2435" clip-path="url(#clip-path)">
        <g id="Group_2434" data-name="Group 2434" transform="translate(80.95 61)">
          <g id="Group-5" data-name="Group">
            <text id="_1_90_000.00" data-name="$1,90,000.00" transform="translate(0 -389)" fill="#1386d9" font-size="10" font-family="ArialMT, Arial"><tspan x="0" y="0">$1,90,000.00</tspan></text>
          </g>
        </g>
      </g>
      <g id="Group_2437" data-name="Group 2437" clip-path="url(#clip-path)">
        <g id="Group_2436" data-name="Group 2436" transform="translate(173.417 353)">
          <g id="Group-6" data-name="Group" transform="translate(0 2)">
            <text id="Ba" transform="translate(0 -389)" fill="#1386d9" font-size="10" font-family="ArialMT, Arial" letter-spacing="0.039em"><tspan x="0" y="0">Ba</tspan></text>
            <text id="y_" data-name="y " transform="translate(11.995 -389)" fill="#1386d9" font-size="10" font-family="ArialMT, Arial" letter-spacing="0.039em"><tspan x="0" y="0">y </tspan></text>
            <text id="A" transform="translate(19.994 -389)" fill="#1386d9" font-size="10" font-family="ArialMT, Arial" letter-spacing="0.039em"><tspan x="0" y="0">A</tspan></text>
            <text id="r" transform="translate(26.994 -389)" fill="#1386d9" font-size="10" font-family="ArialMT, Arial" letter-spacing="0.039em"><tspan x="0" y="0">r</tspan></text>
            <text id="e" transform="translate(30.994 -389)" fill="#1386d9" font-size="10" font-family="ArialMT, Arial" letter-spacing="0.039em"><tspan x="0" y="0">e</tspan></text>
            <text id="a-2" data-name="a" transform="translate(36.997 -389)" fill="#1386d9" font-size="10" font-family="ArialMT, Arial" letter-spacing="0.039em"><tspan x="0" y="0">a</tspan></text>
          </g>
        </g>
      </g>
      <g id="Group_2439" data-name="Group 2439" clip-path="url(#clip-path-17)">
        <g id="Group_2438" data-name="Group 2438" transform="translate(255.652 353)">
          <g id="Group-7" data-name="Group" transform="translate(0 2)">
            <text id="Ca" transform="translate(0 -389)" fill="#1386d9" font-size="10" font-family="ArialMT, Arial" letter-spacing="-0.033em"><tspan x="0" y="0">Ca</tspan></text>
            <text id="nada" transform="translate(12 -389)" fill="#1386d9" font-size="10" font-family="ArialMT, Arial" letter-spacing="-0.033em"><tspan x="0" y="0">nada</tspan></text>
          </g>
        </g>
      </g>
      <g id="Group_2441" data-name="Group 2441" clip-path="url(#clip-path)">
        <g id="Group_2440" data-name="Group 2440" transform="translate(338.75 355)">
          <g id="Group-8" data-name="Group">
            <text id="Ch" transform="translate(0 -389)" fill="#1386d9" font-size="10" font-family="ArialMT, Arial" letter-spacing="-0.033em"><tspan x="0" y="0">Ch</tspan></text>
            <text id="i" transform="translate(12.996 -389)" fill="#1386d9" font-size="10" font-family="ArialMT, Arial" letter-spacing="-0.033em"><tspan x="0" y="0">i</tspan></text>
            <text id="na" transform="translate(15 -389)" fill="#1386d9" font-size="10" font-family="ArialMT, Arial" letter-spacing="-0.033em"><tspan x="0" y="0">na</tspan></text>
          </g>
        </g>
      </g>
      <g id="Group_2443" data-name="Group 2443" clip-path="url(#clip-path)">
        <g id="Group_2442" data-name="Group 2442" transform="translate(418.055 355)">
          <g id="Group-9" data-name="Group">
            <text id="Is" transform="translate(0 -389)" fill="#1386d9" font-size="10" font-family="ArialMT, Arial" letter-spacing="-0.002em"><tspan x="0" y="0">Is</tspan></text>
            <text id="rael" transform="translate(8.004 -389)" fill="#1386d9" font-size="10" font-family="ArialMT, Arial" letter-spacing="-0.002em"><tspan x="0" y="0">rael</tspan></text>
          </g>
        </g>
      </g>
      <g id="Group_2445" data-name="Group 2445" clip-path="url(#clip-path-17)">
        <g id="Group_2444" data-name="Group 2444" transform="translate(502.993 353)">
          <text id="UK" transform="translate(0 -387)" fill="#1386d9" font-size="10" font-family="ArialMT, Arial" letter-spacing="0.025em"><tspan x="0" y="0">UK</tspan></text>
        </g>
      </g>
      <g id="Group_2447" data-name="Group 2447" clip-path="url(#clip-path-21)">
        <g id="Group_2446" data-name="Group 2446" transform="translate(566.338 353)">
          <g id="Group-10" data-name="Group" transform="translate(0 2)">
            <text id="Ge" transform="translate(0 -389)" fill="#1386d9" font-size="10" font-family="ArialMT, Arial" letter-spacing="0.036em"><tspan x="0" y="0">Ge</tspan></text>
            <text id="r-2" data-name="r" transform="translate(13.997 -389)" fill="#1386d9" font-size="10" font-family="ArialMT, Arial" letter-spacing="0.036em"><tspan x="0" y="0">r</tspan></text>
            <text id="m" transform="translate(18.001 -389)" fill="#1386d9" font-size="10" font-family="ArialMT, Arial" letter-spacing="0.036em"><tspan x="0" y="0">m</tspan></text>
            <text id="an" transform="translate(26.998 -389)" fill="#1386d9" font-size="10" font-family="ArialMT, Arial" letter-spacing="0.036em"><tspan x="0" y="0">an</tspan></text>
            <text id="y" transform="translate(38.99 -389)" fill="#1386d9" font-size="10" font-family="ArialMT, Arial" letter-spacing="0.036em"><tspan x="0" y="0">y</tspan></text>
          </g>
        </g>
      </g>
      <g id="Group_2449" data-name="Group 2449" clip-path="url(#clip-path)">
        <g id="Group_2448" data-name="Group 2448" transform="translate(655.379 356)">
          <g id="Group-11" data-name="Group">
            <text id="India" transform="translate(2 -390)" fill="#1386d9" font-size="10" font-family="ArialMT, Arial" letter-spacing="-0.002em"><tspan x="0" y="0">India</tspan></text>
          </g>
        </g>
      </g>
      <g id="Group_2451" data-name="Group 2451" clip-path="url(#clip-path)">
        <g id="Group_2450" data-name="Group 2450" transform="translate(320 -16)">
          <path id="Path_4777" data-name="Path 4777" d="M0,0H19" fill="none" stroke="#0a5bc3" stroke-linecap="round" stroke-linejoin="round" stroke-width="2"/>
        </g>
      </g>
      <g id="Group_2453" data-name="Group 2453" clip-path="url(#clip-path)">
        <path id="Path_4779" data-name="Path 4779" d="M331-17a2,2,0,0,1-2,2,2,2,0,0,1-2-2,2,2,0,0,1,2-2A2,2,0,0,1,331-17Z" fill="#0a5bc3"/>
        <g id="Group_2452" data-name="Group 2452" transform="translate(326.5 -19.5)">
          <path id="Path_4780" data-name="Path 4780" d="M4.5,2.5a2,2,0,1,1-2-2A2,2,0,0,1,4.5,2.5Z" fill="none" stroke="#0a5bc3" stroke-linejoin="round" stroke-width="1"/>
        </g>
      </g>
      <g id="Group_2455" data-name="Group 2455" clip-path="url(#clip-path)">
        <g id="Group_2454" data-name="Group 2454" transform="translate(340.855 376)">
          <g id="Group-12" data-name="Group">
            <text id="Bi" transform="translate(0 -389)" fill="#1386d9" font-size="10" font-family="ArialMT, Arial" letter-spacing="0.039em"><tspan x="0" y="0">Bi</tspan></text>
            <text id="g_D" data-name="g D" transform="translate(8.995 -389)" fill="#1386d9" font-size="10" font-family="ArialMT, Arial" letter-spacing="0.039em"><tspan x="0" y="0">g D</tspan></text>
            <text id="a-3" data-name="a" transform="translate(25.002 -389)" fill="#1386d9" font-size="10" font-family="ArialMT, Arial" letter-spacing="0.039em"><tspan x="0" y="0">a</tspan></text>
            <text id="ta" transform="translate(31.006 -389)" fill="#1386d9" font-size="10" font-family="ArialMT, Arial" letter-spacing="0.039em"><tspan x="0" y="0">ta</tspan></text>
            <text id="_Analytics" data-name="/ Analytics" transform="translate(43.001 -389)" fill="#1386d9" font-size="10" font-family="ArialMT, Arial" letter-spacing="0.039em"><tspan x="0" y="0">/ Analytics</tspan></text>
          </g>
        </g>
      </g>
      <g id="Group_2457" data-name="Group 2457" clip-path="url(#clip-path)">
        <g id="Group_2456" data-name="Group 2456" transform="translate(445 -16)">
          <path id="Path_4783" data-name="Path 4783" d="M0,0H19" fill="none" stroke="#e7114b" stroke-linecap="round" stroke-linejoin="round" stroke-width="2"/>
        </g>
      </g>
      <g id="Group_2459" data-name="Group 2459" clip-path="url(#clip-path)">
        <path id="Path_4785" data-name="Path 4785" d="M456-17a2,2,0,0,1-2,2,2,2,0,0,1-2-2,2,2,0,0,1,2-2A2,2,0,0,1,456-17Z" fill="#e7114b"/>
        <g id="Group_2458" data-name="Group 2458" transform="translate(451.5 -19.5)">
          <path id="Path_4786" data-name="Path 4786" d="M4.5,2.5a2,2,0,1,1-2-2A2,2,0,0,1,4.5,2.5Z" fill="none" stroke="#e7114b" stroke-linejoin="round" stroke-width="1"/>
        </g>
      </g>
      <g id="Group_2461" data-name="Group 2461" clip-path="url(#clip-path)">
        <g id="Group_2460" data-name="Group 2460" transform="translate(466.19 376)">
          <text id="AI" transform="translate(0 -389)" fill="#1386d9" font-size="10" font-family="ArialMT, Arial" letter-spacing="0.004em"><tspan x="0" y="0">AI</tspan></text>
        </g>
      </g>
    </g>
  </g>
</svg>
