<svg xmlns="http://www.w3.org/2000/svg" width="23.982" height="34.347" viewBox="0 0 23.982 34.347"><defs><style>.a{fill:#fff;stroke:#fff;stroke-linecap:round;stroke-linejoin:round;stroke-width:1.347px;}</style></defs><path class="a" d="M-15.777,225.349A11.283,11.283,0,0,0-27.06,214.066a11.284,11.284,0,0,0-11.283,11.283s-.788,11.04,11.283,21.717C-14.988,236.389-15.777,225.349-15.777,225.349Zm-11.283,4.761a4.761,4.761,0,0,1-4.761-4.761,4.762,4.762,0,0,1,4.761-4.762,4.762,4.762,0,0,1,4.762,4.762A4.762,4.762,0,0,1-27.06,230.111Z" transform="translate(39.043 -213.393)"/></svg>