<svg xmlns="http://www.w3.org/2000/svg" xmlns:xlink="http://www.w3.org/1999/xlink" width="63" height="57" viewBox="0 0 63 57">
  <defs>
    <clipPath id="clip-iPhone_X_XS_11_Pro_1">
      <rect width="63" height="57"/>
    </clipPath>
  </defs>
  <g id="iPhone_X_XS_11_Pro_1" data-name="iPhone X/XS/11 Pro – 1" clip-path="url(#clip-iPhone_X_XS_11_Pro_1)">
    <rect width="63" height="57" fill="#fff"/>
    <g id="Group_2126" data-name="Group 2126" transform="translate(-611.313 -205.799)">
      <path id="Path_4523" data-name="Path 4523" d="M656.373,226.607a4.07,4.07,0,0,0-1.117-2.08l-7.566-7.551a4.076,4.076,0,0,0-2.209-1.143l-.019.018-.062-.052H634a4.06,4.06,0,0,0-4.061,4.061v10.547a10.42,10.42,0,0,1,2.683-2.5V219.86A1.379,1.379,0,0,1,634,218.485h9.917v5.63a4.1,4.1,0,0,0,4.1,4.1h5.7V247.04a1.377,1.377,0,0,1-1.377,1.374H634a1.377,1.377,0,0,1-1.378-1.374v-1.622l-1.34.948-1.329.94A4.055,4.055,0,0,0,634,251.1H652.34a4.062,4.062,0,0,0,4.061-4.06V226.716Zm-9.775-2.493v-4.438l5.865,5.856h-4.449A1.417,1.417,0,0,1,646.6,224.115Z" transform="translate(4.19 0)" fill="#f0ab00"/>
      <path id="Path_4524" data-name="Path 4524" d="M643.634,231.364a10.163,10.163,0,0,1-.132,1.6h3.411a1.341,1.341,0,1,0,0-2.683h-3.344a10.432,10.432,0,0,1,.065,1.076Z" transform="translate(9.081 5.222)" fill="#f0ab00"/>
      <path id="Path_4525" data-name="Path 4525" d="M647.613,236.965a1.344,1.344,0,0,0,0-2.687h-4.25a10.346,10.346,0,0,1-1.8,2.687Z" transform="translate(8.381 6.662)" fill="#f0ab00"/>
      <path id="Path_4526" data-name="Path 4526" d="M652.109,232.59a9.79,9.79,0,0,0-9.728-8.7H642.3a9.768,9.768,0,0,0-5.49,1.754,9.79,9.79,0,0,0-4.209,8.042,9.71,9.71,0,0,0,.327,2.486l.046.178L619.606,245.8a3.051,3.051,0,0,0-1.293,2.475l.012.061-.012.023a3.075,3.075,0,0,0,.565,1.71l.336.469a3.053,3.053,0,0,0,2.494,1.291h.01a3.061,3.061,0,0,0,1.762-.563l.424-.3h0l10.222-7.23,1.343-.948,1.34-.95.088-.063.154.1a9.794,9.794,0,0,0,3.1,1.325,10.036,10.036,0,0,0,2.239.261v0a9.836,9.836,0,0,0,9.514-7.531l.007-.027.125-.633a9.867,9.867,0,0,0,.136-1.6v0A9.375,9.375,0,0,0,652.109,232.59ZM628.63,246.253l-5.215,3.471a1.955,1.955,0,0,1-2.169-3.254L626.461,243a1.955,1.955,0,0,1,3.038,1.624A1.961,1.961,0,0,1,628.63,246.253Zm18.492-8.229a6.434,6.434,0,0,1-3.918,1.857l-.646.031a6.463,6.463,0,1,1,6.4-7.322,6.635,6.635,0,0,1,.064.86,6.548,6.548,0,0,1-.263,1.823A6.477,6.477,0,0,1,647.122,238.024Z" transform="translate(0 2.916)" fill="#666"/>
      <path id="Path_4527" data-name="Path 4527" d="M636.165,235.665l-.031,0v.016l.646-.032,0-.013Z" transform="translate(6.425 7.151)" fill="#0382be"/>
      <path id="Path_4528" data-name="Path 4528" d="M640.511,234.278a6.356,6.356,0,0,1-3.906,1.845l0,.012a6.434,6.434,0,0,0,3.918-1.857Z" transform="translate(6.595 6.662)" fill="#0382be"/>
      <path id="Path_4529" data-name="Path 4529" d="M641.531,232.337l-.279-.267a.533.533,0,0,0-.678.267l-.022.031a4.023,4.023,0,0,1-3.845,2.361,5.336,5.336,0,0,1-1.974-.392.537.537,0,1,0-.4,1h0a6.36,6.36,0,0,0,2.378.469h.009a6.128,6.128,0,0,0,.939-.082,5.531,5.531,0,0,0,1.814-.633,4.677,4.677,0,0,0,2.079-2.317Z" transform="translate(5.654 5.853)" fill="#f0ab00"/>
    </g>
  </g>
</svg>
