<svg xmlns="http://www.w3.org/2000/svg" xmlns:xlink="http://www.w3.org/1999/xlink" width="73" height="67" viewBox="0 0 73 67">
  <defs>
    <clipPath id="clip-iPhone_X_XS_11_Pro_1">
      <rect width="73" height="67"/>
    </clipPath>
  </defs>
  <g id="iPhone_X_XS_11_Pro_1" data-name="iPhone X/XS/11 Pro – 1" clip-path="url(#clip-iPhone_X_XS_11_Pro_1)">
    <rect width="73" height="67" fill="#fff"/>
    <g id="Group_2497" data-name="Group 2497" transform="translate(-387.583 -7.505)">
      <path id="Path_4549" data-name="Path 4549" d="M424.082,23.5a17.5,17.5,0,1,0,17.5,17.5A17.5,17.5,0,0,0,424.082,23.5ZM421,56.973a23.617,23.617,0,0,1-3.736-6.837h6.2v7.117A16.349,16.349,0,0,1,421,56.973Zm-13.17-15.351h6.709a28.961,28.961,0,0,0,1.088,7.319h-5.742A16.184,16.184,0,0,1,407.833,41.622ZM424.7,31.854v-7.1a16.005,16.005,0,0,1,2.01.2,23.649,23.649,0,0,1,3.793,6.9Zm6.2,1.2a27.6,27.6,0,0,1,1.141,7.335H424.7V33.051Zm-7.433-1.2h-6.193A23.591,23.591,0,0,1,421,25.035a16.022,16.022,0,0,1,2.461-.278Zm0,1.2v7.335h-7.727a27.6,27.6,0,0,1,1.141-7.335Zm-8.923,7.335h-6.709a16.2,16.2,0,0,1,2.063-7.335h5.739A28.913,28.913,0,0,0,414.541,40.387Zm1.2,1.236h7.727v7.319h-6.592A27.644,27.644,0,0,1,415.738,41.622Zm8.962,8.514h5.81a23.6,23.6,0,0,1-3.8,6.918,17.065,17.065,0,0,1-2.01.2Zm0-1.2V41.622h7.338a27.693,27.693,0,0,1-1.133,7.319Zm8.532-7.319h7.1a16.186,16.186,0,0,1-2.1,7.4v-.079h-6.084A28.8,28.8,0,0,0,433.232,41.622Zm0-1.236a28.684,28.684,0,0,0-1.092-7.335h6.127a16.2,16.2,0,0,1,2.064,7.335Zm4.3-8.532h-5.758a25.236,25.236,0,0,0-3.274-6.5,16.248,16.248,0,0,1,7.086,4.153A16.609,16.609,0,0,1,437.529,31.854Zm-24.946-2.349a16.255,16.255,0,0,1,6.6-4.012A25.377,25.377,0,0,0,416,31.854h-5.368A16.432,16.432,0,0,1,412.583,29.505Zm-1.958,20.631H416a25.384,25.384,0,0,0,3.176,6.378,16.311,16.311,0,0,1-8.55-6.378ZM435.583,52.5a16.247,16.247,0,0,1-7.082,4.152,25.246,25.246,0,0,0,3.275-6.52h5.764A16.286,16.286,0,0,1,435.583,52.5Z" transform="translate(0 0)" fill="#666"/>
      <path id="Path_4550" data-name="Path 4550" d="M425.082,23.5a17.5,17.5,0,1,0,17.5,17.5A17.5,17.5,0,0,0,425.082,23.5ZM422,56.973a23.617,23.617,0,0,1-3.736-6.837h6.2v7.117A16.349,16.349,0,0,1,422,56.973Zm-13.17-15.351h6.709a28.964,28.964,0,0,0,1.088,7.319h-5.742A16.184,16.184,0,0,1,408.833,41.622ZM425.7,31.854v-7.1a16.006,16.006,0,0,1,2.01.2,23.649,23.649,0,0,1,3.793,6.9Zm6.2,1.2a27.6,27.6,0,0,1,1.141,7.335H425.7V33.051Zm-7.433-1.2h-6.193A23.591,23.591,0,0,1,422,25.035a16.022,16.022,0,0,1,2.461-.278Zm0,1.2v7.335h-7.727a27.6,27.6,0,0,1,1.141-7.335Zm-8.923,7.335h-6.709a16.2,16.2,0,0,1,2.063-7.335h5.739A28.913,28.913,0,0,0,415.541,40.387Zm1.2,1.236h7.727v7.319h-6.592A27.644,27.644,0,0,1,416.738,41.622Zm8.962,8.514h5.81a23.6,23.6,0,0,1-3.8,6.918,17.065,17.065,0,0,1-2.01.2Zm0-1.2V41.622h7.338a27.7,27.7,0,0,1-1.133,7.319Zm8.532-7.319h7.1a16.186,16.186,0,0,1-2.1,7.4v-.079h-6.084A28.8,28.8,0,0,0,434.232,41.622Zm0-1.236a28.684,28.684,0,0,0-1.092-7.335h6.127a16.2,16.2,0,0,1,2.064,7.335Zm4.3-8.532h-5.758a25.236,25.236,0,0,0-3.274-6.5,16.248,16.248,0,0,1,7.086,4.153A16.613,16.613,0,0,1,438.529,31.854Zm-24.946-2.349a16.255,16.255,0,0,1,6.6-4.012A25.375,25.375,0,0,0,417,31.854h-5.368A16.432,16.432,0,0,1,413.583,29.505Zm-1.958,20.631H417a25.382,25.382,0,0,0,3.176,6.378,16.311,16.311,0,0,1-8.55-6.378ZM436.583,52.5a16.247,16.247,0,0,1-7.082,4.152,25.248,25.248,0,0,0,3.275-6.52h5.764A16.286,16.286,0,0,1,436.583,52.5Z" transform="translate(0.295 0)" fill="#f0ab00"/>
    </g>
  </g>
</svg>
