<svg xmlns="http://www.w3.org/2000/svg" xmlns:xlink="http://www.w3.org/1999/xlink" width="73" height="67" viewBox="0 0 73 67">
  <defs>
    <clipPath id="clip-iPhone_X_XS_11_Pro_1">
      <rect width="73" height="67"/>
    </clipPath>
  </defs>
  <g id="iPhone_X_XS_11_Pro_1" data-name="iPhone X/XS/11 Pro – 1" clip-path="url(#clip-iPhone_X_XS_11_Pro_1)">
    <rect width="73" height="67" fill="#fff"/>
    <g id="Group_2136" data-name="Group 2136" transform="translate(-443.517 -4.061)">
      <path id="Path_4551" data-name="Path 4551" d="M481.4,43.4,469.84,37.2l1.753,6.305c-6.159,3.822-13.11-.884-8.928-8.631.386-.561-.424-1.252-.962-.5-1.578,2.049-5.2,10.6,2.869,15.529,1.635.612,3.519,2.03,8.935.5L474.7,54.68Z" transform="translate(0 4.09)" fill="#666"/>
      <path id="Path_4552" data-name="Path 4552" d="M474.74,29.337,486.3,35.546l-1.755-6.305c6.161-3.822,13.111.883,8.926,8.63-.383.56.425,1.253.963.5,1.581-2.049,5.2-10.6-2.867-15.53-1.635-.61-3.518-2.028-8.935-.494l-1.193-4.283Z" transform="translate(3.897)" fill="#666"/>
      <g id="Group_2135" data-name="Group 2135" transform="translate(483.727 37.126)">
        <rect id="Rectangle_2945" data-name="Rectangle 2945" width="1.427" height="21.715" transform="translate(5.783)" fill="#f0ab00"/>
        <g id="Group_2134" data-name="Group 2134" transform="translate(0 1.356)">
          <g id="Group_2132" data-name="Group 2132">
            <path id="Path_4553" data-name="Path 4553" d="M483.77,48.531a4.8,4.8,0,0,1-3.083-3.473l-1.894.472q1.341,4.214,4.977,5.047Z" transform="translate(-478.793 -31.571)" fill="#f0ab00" fill-rule="evenodd"/>
            <path id="Path_4554" data-name="Path 4554" d="M479.517,40.018a5.668,5.668,0,0,0,4.083,4.127V41.992a3.157,3.157,0,0,1-2.447-2.834,3.134,3.134,0,0,1,2.359-2.812c.031-.01.057-.028.088-.036V34.32a6.047,6.047,0,0,0-.585.153,5.577,5.577,0,0,0-3.465,3.752,5.79,5.79,0,0,0-.09.987A5.988,5.988,0,0,0,479.517,40.018Z" transform="translate(-478.622 -34.32)" fill="#f0ab00" fill-rule="evenodd"/>
          </g>
          <g id="Group_2133" data-name="Group 2133" transform="translate(7.835)">
            <path id="Path_4555" data-name="Path 4555" d="M486.242,36.925a3.713,3.713,0,0,1,1.564,2.442l1.908-.619c-.806-2.556-2.373-4.034-4.682-4.427v2A4.959,4.959,0,0,1,486.242,36.925Z" transform="translate(-485.031 -34.32)" fill="#f0ab00" fill-rule="evenodd"/>
            <path id="Path_4556" data-name="Path 4556" d="M488.415,46.377a3.069,3.069,0,0,1-1.439,2.477,3.491,3.491,0,0,1-1.5.692c-.134.038-.273.072-.413.1v1.969c.08-.011.153-.029.232-.04,2.887-.963,4.886-2.984,4.886-5.33,0-2.408-2.106-4.3-5.121-5.231l0,2.1C486.985,43.473,488.415,44.792,488.415,46.377Z" transform="translate(-485.024 -32.607)" fill="#f0ab00" fill-rule="evenodd"/>
          </g>
        </g>
      </g>
      <path id="Path_4557" data-name="Path 4557" d="M468.935,21.478a8.446,8.446,0,1,0,8.445,8.446A8.447,8.447,0,0,0,468.935,21.478Zm-1.487,16.153a11.407,11.407,0,0,1-1.8-3.3h2.992v3.434A7.854,7.854,0,0,1,467.448,37.631Zm-6.355-7.409h3.237a13.978,13.978,0,0,0,.525,3.533h-2.771A7.811,7.811,0,0,1,461.093,30.222Zm8.14-4.714V22.082a7.923,7.923,0,0,1,.97.1,11.393,11.393,0,0,1,1.831,3.33Zm2.991.578a13.312,13.312,0,0,1,.55,3.541h-3.541V26.086Zm-3.587-.578h-2.989a11.376,11.376,0,0,1,1.8-3.292,7.836,7.836,0,0,1,1.187-.134Zm0,.578v3.541h-3.729a13.31,13.31,0,0,1,.551-3.541Zm-4.307,3.541h-3.237a7.812,7.812,0,0,1,.995-3.541h2.769A13.969,13.969,0,0,0,464.33,29.627Zm.578.6h3.729v3.533h-3.181A13.365,13.365,0,0,1,464.908,30.222Zm4.326,4.11h2.8A11.358,11.358,0,0,1,470.2,37.67a7.945,7.945,0,0,1-.97.1Zm0-.576V30.222h3.541a13.313,13.313,0,0,1-.546,3.533Zm4.118-3.533h3.425a7.8,7.8,0,0,1-1.014,3.571v-.038h-2.936A13.929,13.929,0,0,0,473.352,30.222Zm0-.6a13.915,13.915,0,0,0-.528-3.541h2.957a7.8,7.8,0,0,1,1,3.541Zm2.072-4.118h-2.778a12.223,12.223,0,0,0-1.58-3.139,7.848,7.848,0,0,1,3.42,2A7.969,7.969,0,0,1,475.424,25.508Zm-12.039-1.134a7.844,7.844,0,0,1,3.183-1.935,12.249,12.249,0,0,0-1.531,3.07h-2.591A7.892,7.892,0,0,1,463.385,24.374Zm-.946,9.957h2.595a12.245,12.245,0,0,0,1.532,3.078,7.895,7.895,0,0,1-4.127-3.078Zm12.046,1.142a7.82,7.82,0,0,1-3.419,2,12.2,12.2,0,0,0,1.581-3.146h2.782A7.853,7.853,0,0,1,474.486,35.473Z" transform="translate(0.249 0.875)" fill="#f0ab00"/>
      <path id="Path_4558" data-name="Path 4558" d="M469.415,21.478a8.446,8.446,0,1,0,8.445,8.446A8.446,8.446,0,0,0,469.415,21.478Zm-1.487,16.153a11.4,11.4,0,0,1-1.8-3.3h2.99v3.434A7.871,7.871,0,0,1,467.928,37.631Zm-6.355-7.409h3.238a13.975,13.975,0,0,0,.525,3.533h-2.772A7.827,7.827,0,0,1,461.573,30.222Zm8.14-4.714V22.082a7.944,7.944,0,0,1,.971.1,11.418,11.418,0,0,1,1.83,3.33Zm2.991.578a13.315,13.315,0,0,1,.551,3.541h-3.542V26.086Zm-3.587-.578h-2.988a11.4,11.4,0,0,1,1.8-3.292,7.855,7.855,0,0,1,1.187-.134Zm0,.578v3.541h-3.728a13.263,13.263,0,0,1,.55-3.541Zm-4.305,3.541h-3.238a7.814,7.814,0,0,1,1-3.541h2.769A13.915,13.915,0,0,0,464.811,29.627Zm.578.6h3.728v3.533h-3.18A13.315,13.315,0,0,1,465.389,30.222Zm4.324,4.11h2.8a11.386,11.386,0,0,1-1.834,3.338,7.943,7.943,0,0,1-.971.1Zm0-.576V30.222h3.542a13.365,13.365,0,0,1-.548,3.533Zm4.118-3.533h3.426a7.819,7.819,0,0,1-1.014,3.571v-.038h-2.937A13.926,13.926,0,0,0,473.831,30.222Zm0-.6a13.8,13.8,0,0,0-.527-3.541h2.958a7.813,7.813,0,0,1,1,3.541Zm2.074-4.118h-2.779a12.188,12.188,0,0,0-1.58-3.139,7.842,7.842,0,0,1,3.42,2A8.061,8.061,0,0,1,475.9,25.508Zm-12.04-1.134a7.841,7.841,0,0,1,3.184-1.935,12.248,12.248,0,0,0-1.532,3.07h-2.591A8.057,8.057,0,0,1,463.865,24.374Zm-.945,9.957h2.594a12.207,12.207,0,0,0,1.534,3.078,7.877,7.877,0,0,1-4.127-3.078Zm12.045,1.142a7.823,7.823,0,0,1-3.418,2,12.2,12.2,0,0,0,1.58-3.146h2.782A7.852,7.852,0,0,1,474.965,35.473Z" transform="translate(0.372 0.875)" fill="#f0ab00"/>
    </g>
  </g>
</svg>
