<svg xmlns="http://www.w3.org/2000/svg" xmlns:xlink="http://www.w3.org/1999/xlink" width="73" height="67" viewBox="0 0 73 67">
  <defs>
    <clipPath id="clip-iPhone_X_XS_11_Pro_1">
      <rect width="73" height="67"/>
    </clipPath>
  </defs>
  <g id="iPhone_X_XS_11_Pro_1" data-name="iPhone X/XS/11 Pro – 1" clip-path="url(#clip-iPhone_X_XS_11_Pro_1)">
    <rect width="73" height="67" fill="#fff"/>
    <g id="Group_2476" data-name="Group 2476" transform="translate(11.327 -458.725)">
      <path id="Path_4793" data-name="Path 4793" d="M15.052,501.414a.96.96,0,0,0,.953.818,1.075,1.075,0,0,0,.126-.007c5.669-.744,9.9-2.289,12.942-4.722a15.835,15.835,0,0,0,3.742-4.3,21.71,21.71,0,0,0,2.069-4.711l1.81.258a.966.966,0,0,0,1.007-1.377l-3.045-6.327v0a.968.968,0,0,0-.677-.526.959.959,0,0,0-.825.214L27.8,485.336a.976.976,0,0,0-.306.974.96.96,0,0,0,.737.705l1.6.339a14.72,14.72,0,0,1-2.719,6.138,18.423,18.423,0,0,1-7.228,5.489,22.2,22.2,0,0,1-2.916,1.052c-.375.107-.672.179-.854.22l-.221.047-.05.01A.964.964,0,0,0,15.052,501.414Zm3.646-.748c.5-.176,1.057-.393,1.65-.654a19.557,19.557,0,0,0,7.671-5.838,15.925,15.925,0,0,0,3.027-7.168.565.565,0,0,0-.44-.641l-1.823-.386,4.948-4.262,2.825,5.873-1.989-.285a.552.552,0,0,0-.081-.006.564.564,0,0,0-.539.4,21.114,21.114,0,0,1-2.1,4.918,14.758,14.758,0,0,1-3.48,4A21.984,21.984,0,0,1,18.7,500.666Z" fill="#666"/>
      <path id="Path_4794" data-name="Path 4794" d="M40.748,505.4a.782.782,0,0,0-.782-.782H12.174V478.912a.782.782,0,1,0-1.565,0h0V505.4a.784.784,0,0,0,.782.784H39.966A.783.783,0,0,0,40.748,505.4Z" fill="#f0ab00"/>
      <path id="Path_4795" data-name="Path 4795" d="M40.39,506.989a.811.811,0,0,0-.8-.823H11.268V479.111a.8.8,0,1,0-1.595,0h0v27.878a.844.844,0,0,0,.233.583.794.794,0,0,0,.564.241H39.592A.811.811,0,0,0,40.39,506.989Z" fill="#f0ab00"/>
      <rect id="Rectangle_3158" data-name="Rectangle 3158" width="2.827" height="31.088" rx="1.413" transform="translate(9.673 476.725)" fill="#f0ab00"/>
      <rect id="Rectangle_3159" data-name="Rectangle 3159" width="2.827" height="31.088" rx="1.413" transform="translate(10.875 507.597) rotate(-90)" fill="#f0ab00"/>
      <path id="Path_4796" data-name="Path 4796" d="M16.01,501.414a.961.961,0,0,0,.953.818,1.092,1.092,0,0,0,.127-.007c5.668-.744,9.9-2.289,12.942-4.722a15.849,15.849,0,0,0,3.741-4.3,21.662,21.662,0,0,0,2.07-4.711l1.809.258a.967.967,0,0,0,1.008-1.377l-3.046-6.327v0a.968.968,0,0,0-.677-.526.958.958,0,0,0-.825.214l-5.35,4.608a.975.975,0,0,0-.3.974.96.96,0,0,0,.736.705l1.6.339a14.694,14.694,0,0,1-2.719,6.138,18.413,18.413,0,0,1-7.227,5.489,22.154,22.154,0,0,1-2.917,1.052c-.374.107-.671.179-.854.22l-.221.047-.049.01A.965.965,0,0,0,16.01,501.414Zm3.647-.748c.5-.176,1.056-.393,1.65-.654a19.562,19.562,0,0,0,7.67-5.838A15.9,15.9,0,0,0,32,487.006a.564.564,0,0,0-.439-.641l-1.823-.386,4.947-4.262,2.826,5.873-1.99-.285a.539.539,0,0,0-.08-.006.563.563,0,0,0-.539.4,21.114,21.114,0,0,1-2.1,4.918,14.792,14.792,0,0,1-3.48,4A21.984,21.984,0,0,1,19.657,500.666Z" fill="#666"/>
    </g>
  </g>
</svg>
