<svg xmlns="http://www.w3.org/2000/svg" xmlns:xlink="http://www.w3.org/1999/xlink" width="73" height="67" viewBox="0 0 73 67">
  <defs>
    <clipPath id="clip-iPhone_X_XS_11_Pro_1">
      <rect width="73" height="67"/>
    </clipPath>
  </defs>
  <g id="iPhone_X_XS_11_Pro_1" data-name="iPhone X/XS/11 Pro – 1" clip-path="url(#clip-iPhone_X_XS_11_Pro_1)">
    <rect width="73" height="67" fill="#fff"/>
    <g id="Group_2480" data-name="Group 2480" transform="translate(4.907 -341.738)">
      <g id="Group_2479" data-name="Group 2479">
        <path id="Path_4810" data-name="Path 4810" d="M48.811,364.3a.635.635,0,0,0-.116-.178l-.038-.041a1.014,1.014,0,0,0-.986-.291,1.03,1.03,0,0,0-.742.741,1.739,1.739,0,0,1-2.257,1.2,1.941,1.941,0,0,1-1.233-1.639.36.36,0,0,1,.005-.127,1.9,1.9,0,0,1,1.484-1.586,1.027,1.027,0,0,0,.791-.685,1,1,0,0,0-.221-1l-2.469-2.646a1.01,1.01,0,0,0-.513-.3.582.582,0,0,0-.156-.016A1.027,1.027,0,0,0,41.7,358l-2.352,2.144a2.958,2.958,0,0,0-.565-.868,3.019,3.019,0,0,0-4.2-.18,3,3,0,0,0,.675,4.818l-2.323,2.168a.7.7,0,0,0-.114.135,1,1,0,0,0-.206.511.575.575,0,0,0,0,.155,1,1,0,0,0,.253.534l2.437,2.674a1,1,0,0,0,.976.3,1.033,1.033,0,0,0,.747-.735,1.9,1.9,0,0,1,1.7-1.351.378.378,0,0,1,.126.005,1.944,1.944,0,0,1,1.538,1.363,1.738,1.738,0,0,1-1.376,2.152,1.031,1.031,0,0,0-.8.679,1.008,1.008,0,0,0,.21,1.006l.037.04a.633.633,0,0,0,.168.132l2.334,2.5a1.019,1.019,0,0,0,.621.316.68.68,0,0,0,.077,0,.51.51,0,0,0,.087-.007,1,1,0,0,0,.33-.11,1.011,1.011,0,0,0,.209-.144l2.55-2.323a.59.59,0,0,0,.085-.1,1.027,1.027,0,0,0,.153-.895.988.988,0,0,0-.6-.646,1.7,1.7,0,0,1-.664-.451,1.74,1.74,0,0,1,.176-2.51.6.6,0,0,0,.046-.042,1.774,1.774,0,0,1,1.265-.524,1.726,1.726,0,0,1,1.25.553,1.708,1.708,0,0,1,.4.7.984.984,0,0,0,.6.651,1.031,1.031,0,0,0,.9-.08.7.7,0,0,0,.1-.077l2.523-2.355a1,1,0,0,0,.295-.508.638.638,0,0,0,.016-.169,1.008,1.008,0,0,0-.263-.645Zm-.8,4.98a3.109,3.109,0,1,0-5.133,3.4,3.03,3.03,0,0,0,.779.613L41.674,375.1l-2-2.148a3,3,0,0,0,1.939-3.6,3.2,3.2,0,0,0-2.469-2.271,1.655,1.655,0,0,0-.584-.028,3.2,3.2,0,0,0-2.6,1.871L34.009,366.8l2.305-2.152a1,1,0,0,0,.233-.322,1.021,1.021,0,0,0,.077-.82.987.987,0,0,0-.591-.619,1.736,1.736,0,0,1-.6-2.865,1.748,1.748,0,0,1,2.426.114,1.71,1.71,0,0,1,.4.7.99.99,0,0,0,.57.641,1.166,1.166,0,0,0,1.159-.213l2.335-2.128,1.969,2.11a3.192,3.192,0,0,0-2.075,2.446,1.629,1.629,0,0,0-.02.583,3.2,3.2,0,0,0,2.063,2.644A3,3,0,0,0,48,365.275l1.978,2.172Z" fill="#f0ab00"/>
        <path id="Path_4811" data-name="Path 4811" d="M17.136,392.178a1.018,1.018,0,0,0,1.016,1.01h.006l11.7-.069a.9.9,0,0,0,.091-.012,1.016,1.016,0,0,0,.4.081l3.629-.021a.586.586,0,0,0,.125-.014,1.019,1.019,0,0,0,.71-.558,1,1,0,0,0-.012-.89,1.9,1.9,0,0,1,.225-2.016.391.391,0,0,1,.088-.089,2.163,2.163,0,0,1,1.237-.423,1.746,1.746,0,0,1,1.74,1.731,1.715,1.715,0,0,1-.182.782.985.985,0,0,0,0,.882,1.028,1.028,0,0,0,.719.554.634.634,0,0,0,.126.012l3.447-.021a1.016,1.016,0,0,0,1.012-1.022l-.021-3.6a1,1,0,0,0-1.016-1.007,1.038,1.038,0,0,0-.56.166A1.735,1.735,0,0,1,39.139,387a1.942,1.942,0,0,1,.209-2.039.32.32,0,0,1,.088-.088,2.163,2.163,0,0,1,1.242-.426,1.727,1.727,0,0,1,.922.266,1.047,1.047,0,0,0,1.271-.137,1,1,0,0,0,.29-.713l-.022-3.617a1.02,1.02,0,0,0-1.022-1.01l-3.1.018a2.964,2.964,0,0,0,.161-.989,3.006,3.006,0,0,0-3-2.978,3.428,3.428,0,0,0-1.935.634,3.055,3.055,0,0,0,.253-.4,3.2,3.2,0,0,0-.309-3.334,1.591,1.591,0,0,0-.415-.411,3.272,3.272,0,0,0-2.94-.461l-.019-3.1a1.019,1.019,0,0,0-1.022-1.009l-3.1.018a3.207,3.207,0,0,0-.487-2.959,1.6,1.6,0,0,0-.412-.409,3.455,3.455,0,0,0-1.926-.625h0a2.995,2.995,0,0,0-2.816,4.026l-3.105.019a1.017,1.017,0,0,0-1.01,1.021l.022,3.631a.58.58,0,0,0,.013.124,1.018,1.018,0,0,0,.991.81,1,1,0,0,0,.457-.111,1.94,1.94,0,0,1,2.015.225.355.355,0,0,1,.09.087,1.943,1.943,0,0,1,.228,2.038,1.744,1.744,0,0,1-1.547.94,1.718,1.718,0,0,1-.774-.184.987.987,0,0,0-.44-.1,1.018,1.018,0,0,0-.993.822.744.744,0,0,0-.011.125l.02,3.448a.591.591,0,0,0,.064.267.324.324,0,0,0,0,.046l.017,2.964a3.209,3.209,0,0,0-2.959.487,1.579,1.579,0,0,0-.407.412,3.2,3.2,0,0,0-.274,3.34,2.994,2.994,0,0,0,3.674,1.4ZM34.6,380.052a1,1,0,0,0,.036-.984,1.9,1.9,0,0,1,.225-2.013.363.363,0,0,1,.089-.09,2.167,2.167,0,0,1,1.237-.422,1.743,1.743,0,0,1,1.74,1.728,1.715,1.715,0,0,1-.181.783.989.989,0,0,0,.044.972,1.017,1.017,0,0,0,.875.485l3.22-.018.017,2.955a3.242,3.242,0,0,0-3.18.388,1.617,1.617,0,0,0-.413.416,3.2,3.2,0,0,0-.28,3.335,3,3,0,0,0,3.9,1.319l.018,2.955-2.76.016a3,3,0,0,0-2.84-3.957,3.446,3.446,0,0,0-1.953.646,1.617,1.617,0,0,0-.411.414,3.223,3.223,0,0,0-.465,2.931l-2.939.017-.019-3.231a1.019,1.019,0,0,0-1.013-1.015.977.977,0,0,0-.464.117,1.74,1.74,0,0,1-2.346-.727,1.938,1.938,0,0,1,.206-2.035.356.356,0,0,1,.087-.09,1.946,1.946,0,0,1,2.028-.242,1.026,1.026,0,0,0,1.178-.19,1,1,0,0,0,.3-.721l-.019-3.233,3.22-.019A1.011,1.011,0,0,0,34.6,380.052Zm-1.238-.766-2.474.014-.014-2.325a3.017,3.017,0,0,0,.987.161,2.976,2.976,0,0,0,1.906-.7A3.191,3.191,0,0,0,33.36,379.286ZM19.224,377.3a2.993,2.993,0,0,0,2.644-1.618,3.2,3.2,0,0,0-.311-3.335,1.614,1.614,0,0,0-.414-.41,3.268,3.268,0,0,0-2.93-.464l-.017-2.94,3.232-.017a1.022,1.022,0,0,0,.87-.5.989.989,0,0,0,.028-.978,1.74,1.74,0,0,1,1.542-2.548h0a2.173,2.173,0,0,1,1.218.407.378.378,0,0,1,.09.088,1.945,1.945,0,0,1,.24,2.031,1,1,0,0,0,.04.984,1.015,1.015,0,0,0,.874.486l3.232-.02.02,3.22A1.017,1.017,0,0,0,30.6,372.7a1.033,1.033,0,0,0,.459-.11,1.938,1.938,0,0,1,2.014.223.362.362,0,0,1,.089.09,1.941,1.941,0,0,1,.228,2.037,1.743,1.743,0,0,1-1.546.94,1.707,1.707,0,0,1-.767-.18,1.013,1.013,0,0,0-1.462.918l.018,2.935a1.111,1.111,0,0,0-.17.185h0a.879.879,0,0,0-.063.1l-3.091.018a.373.373,0,0,1-.333-.19.4.4,0,0,1,.015-.406,2.533,2.533,0,0,0-.178-2.864.976.976,0,0,0-.248-.244,2.79,2.79,0,0,0-1.579-.519,2.367,2.367,0,0,0-1.995,3.644.4.4,0,0,1,.018.409.385.385,0,0,1-.333.2l-3.41.02-.016-2.759A3.04,3.04,0,0,0,19.224,377.3ZM16.1,388a1.767,1.767,0,0,1-1.547-.922,1.945,1.945,0,0,1,.206-2.043.366.366,0,0,1,.085-.086,1.942,1.942,0,0,1,2.03-.24,1.015,1.015,0,0,0,1.471-.914l-.016-2.631,3.353-.02a1.644,1.644,0,0,0,1.431-.857,1.661,1.661,0,0,0-.066-1.688,1.109,1.109,0,0,1,.149-1.379,1.251,1.251,0,0,1,1.616-.054,1.294,1.294,0,0,1,.114,1.425,1.654,1.654,0,0,0-.054,1.683,1.637,1.637,0,0,0,1.438.842l2.951-.018.013,2.334a3.27,3.27,0,0,0-2.96.486,1.627,1.627,0,0,0-.407.412,3.2,3.2,0,0,0-.277,3.334,3,3,0,0,0,2.666,1.594,3.032,3.032,0,0,0,1.012-.182l.016,2.7a.611.611,0,0,0-.07.091l-10.861.065-.019-3.232a1.018,1.018,0,0,0-.5-.87.991.991,0,0,0-.979-.028A1.727,1.727,0,0,1,16.1,388Z" fill="#666"/>
      </g>
      <path id="Path_4812" data-name="Path 4812" d="M34.009,366.8l1.21,2.116.734.017,3.188-1.844,1.25,1.844.61,1.944-1.33,2.079.08,1.128L41,375.417l1.75-.312.91-1.81-.779-.612-.381-3.517,1.942-1.531,2.058.532,1.514,1.113,1.964-1.832L48,365.275l-1.749.975-1.992.667-1.341-1.642.527-1.312.14-1.873.707-.846-1.969-2.109L40.39,360.25l-1.045-.1-2.1-.7h-.986l-.83.578L34.009,361l.575.75.784.686-.111,1.478,1.291.411Z" fill="#f0ab00"/>
    </g>
  </g>
</svg>
