<svg xmlns="http://www.w3.org/2000/svg" xmlns:xlink="http://www.w3.org/1999/xlink" width="73" height="67" viewBox="0 0 73 67">
  <defs>
    <clipPath id="clip-iPhone_X_XS_11_Pro_1">
      <rect width="73" height="67"/>
    </clipPath>
  </defs>
  <g id="iPhone_X_XS_11_Pro_1" data-name="iPhone X/XS/11 Pro – 1" clip-path="url(#clip-iPhone_X_XS_11_Pro_1)">
    <rect width="73" height="67" fill="#fff"/>
    <g id="Group_1" data-name="Group 1" transform="translate(-510.654 -32.284)">
      <path id="Path_4565" data-name="Path 4565" d="M542.239,61.727c.652.591.517,2.215.308,2.672s-1.077.684-1.937.5-1.766.627-2.023,1.806a1.976,1.976,0,0,0,1.1,2.481c.858.186,1.556,1.65,1.6,2.154s-.591,1.138-1.425,1.406a1.972,1.972,0,0,0-.848,2.577c.366,1.148,1.353,1.867,2.189,1.6s1.727-.132,1.98.307.541,2.037-.046,2.687a2.306,2.306,0,0,0,3.252,2.946c.587-.654,2.213-.519,2.673-.313s.682,1.078.5,1.938.627,1.769,1.8,2.023a1.976,1.976,0,0,0,2.482-1.1c.186-.858,1.653-1.554,2.156-1.605s1.134.593,1.4,1.428a1.978,1.978,0,0,0,2.579.847c1.148-.368,1.866-1.355,1.6-2.191s.67-2.178,1.074-2.472,1.272-.048,1.921.54a2.3,2.3,0,0,0,2.942-3.251c-.651-.59-.517-2.215-.308-2.673s1.077-.682,1.937-.5,1.768-.627,2.023-1.806a1.976,1.976,0,0,0-1.1-2.481c-.86-.184-1.554-1.652-1.6-2.155s.591-1.138,1.427-1.407a1.972,1.972,0,0,0,.847-2.573c-.37-1.15-1.354-1.87-2.192-1.6s-2.178-.669-2.471-1.075-.05-1.27.541-1.92a2.3,2.3,0,0,0-3.252-2.943c-.589.651-2.214.517-2.673.309s-.682-1.078-.5-1.937-.629-1.769-1.808-2.023a1.968,1.968,0,0,0-2.478,1.1c-.184.858-1.653,1.555-2.154,1.6s-1.136-.592-1.406-1.429a1.973,1.973,0,0,0-2.577-.847c-1.149.369-1.868,1.355-1.6,2.191s-.669,2.178-1.074,2.471-1.268.05-1.919-.539a2.305,2.305,0,0,0-2.944,3.252Zm9.71-.617a9.568,9.568,0,1,1-6.177,12.037A9.567,9.567,0,0,1,551.949,61.11Z" fill="#545454"/>
      <path id="Path_4566" data-name="Path 4566" d="M525.045,49.345a1.954,1.954,0,0,1,.2,1.72c-.135.3-.7.439-1.248.319s-1.137.4-1.3,1.164a1.264,1.264,0,0,0,.7,1.594c.552.121,1,1.062,1.031,1.386s-.379.731-.917.9a1.272,1.272,0,0,0-.545,1.658c.237.739.871,1.2,1.409,1.028s1.111-.085,1.273.2a1.945,1.945,0,0,1-.029,1.729,1.482,1.482,0,0,0,2.089,1.894,1.947,1.947,0,0,1,1.72-.2c.3.133.439.695.322,1.247s.4,1.138,1.161,1.3a1.273,1.273,0,0,0,1.6-.708c.117-.551,1.062-1,1.386-1.032s.729.382.9.918a1.265,1.265,0,0,0,1.656.545c.737-.237,1.2-.871,1.029-1.408s.431-1.4.691-1.591.817-.03,1.235.348a1.483,1.483,0,0,0,1.893-2.091,1.953,1.953,0,0,1-.2-1.72c.133-.294.693-.439,1.245-.319s1.139-.4,1.3-1.162a1.268,1.268,0,0,0-.707-1.6c-.551-.119-1-1.063-1.032-1.385s.381-.733.918-.906a1.268,1.268,0,0,0,.545-1.656c-.236-.739-.87-1.2-1.41-1.03s-1.4-.43-1.587-.691-.035-.816.346-1.236a1.483,1.483,0,0,0-2.094-1.893,1.938,1.938,0,0,1-1.716.2c-.3-.134-.44-.694-.321-1.248s-.405-1.137-1.163-1.3a1.272,1.272,0,0,0-1.6.706c-.117.552-1.061,1-1.385,1.033s-.729-.382-.9-.919a1.267,1.267,0,0,0-1.658-.545c-.738.237-1.2.871-1.031,1.41s-.429,1.4-.689,1.588-.815.033-1.234-.347a1.482,1.482,0,0,0-1.894,2.092Zm6.245-.4a6.154,6.154,0,1,1-3.972,7.744A6.15,6.15,0,0,1,531.29,48.948Z" fill="#f0ab00"/>
      <path id="Path_4567" data-name="Path 4567" d="M524.581,69.333a1.507,1.507,0,0,1,.154,1.322c-.1.228-.533.337-.959.247s-.873.309-1,.893a.977.977,0,0,0,.545,1.226c.424.092.767.816.792,1.065s-.293.563-.706.695a.975.975,0,0,0-.417,1.275c.181.566.668.923,1.082.79s.853-.065.979.151a1.5,1.5,0,0,1-.024,1.329,1.139,1.139,0,0,0,1.608,1.455,1.5,1.5,0,0,1,1.322-.154c.225.1.337.533.244.959s.31.874.895,1a.974.974,0,0,0,1.225-.542c.091-.425.817-.769,1.065-.795s.564.294.7.706a.973.973,0,0,0,1.274.419c.569-.182.924-.669.789-1.082s.331-1.077.531-1.222.631-.024.95.267a1.14,1.14,0,0,0,1.456-1.609,1.5,1.5,0,0,1-.153-1.321c.1-.226.532-.337.958-.245s.875-.311,1-.894a.973.973,0,0,0-.541-1.225c-.425-.092-.769-.817-.793-1.065s.292-.563.7-.7a.975.975,0,0,0,.42-1.273c-.183-.569-.67-.924-1.084-.791s-1.075-.332-1.22-.533-.026-.625.265-.949a1.138,1.138,0,0,0-1.606-1.453,1.5,1.5,0,0,1-1.322.151c-.227-.1-.339-.532-.246-.957s-.312-.876-.895-1a.974.974,0,0,0-1.225.541c-.091.425-.817.77-1.067.8s-.56-.293-.694-.707a.976.976,0,0,0-1.274-.419c-.567.183-.922.67-.789,1.084s-.333,1.075-.531,1.223-.629.023-.951-.268a1.139,1.139,0,0,0-1.455,1.607Zm4.8-.305a4.731,4.731,0,1,1-3.054,5.951A4.732,4.732,0,0,1,529.381,69.028Z" fill="#f0ab00"/>
    </g>
  </g>
</svg>
